<svg xmlns="http://www.w3.org/2000/svg" xmlns:xlink="http://www.w3.org/1999/xlink" viewBox="0 0 226.59 191.08"><defs><style>.cls-1{isolation:isolate;}.cls-2{fill:#fff;}.cls-3{fill:#873dff;}.cls-4,.cls-5{mix-blend-mode:multiply;opacity:0.7;}.cls-4{fill:url(#linear-gradient);}.cls-5{fill:url(#linear-gradient-2);}</style><linearGradient id="linear-gradient" x1="120.5" y1="23.35" x2="189.33" y2="23.35" gradientUnits="userSpaceOnUse"><stop offset="0.08"/><stop offset="0.79" stop-color="#fff"/></linearGradient><linearGradient id="linear-gradient-2" x1="45.33" y1="84.24" x2="114.16" y2="84.24" gradientUnits="userSpaceOnUse"><stop offset="0.19" stop-color="#fff"/><stop offset="1"/></linearGradient></defs><g class="cls-1"><g id="Layer_2" data-name="Layer 2"><g id="Pixel_layer_Image" data-name="Pixel layer Image"><path class="cls-2" d="M26.5,127.76h4.62v25.08H26.5L5.71,133.6l.11,3.76v15.48H1.2V127.76H5.82L26.57,147l-.07-3.87Z"/><path class="cls-2" d="M45,150.94l1.25-4.12a47.34,47.34,0,0,0,14.52,2.26c2.36,0,9.31-.29,9.31-3.62,0-2.26-3.15-2.44-9.24-2.76-7.2-.39-14.94-.82-14.94-7.52s7.81-8,13.9-8a63.75,63.75,0,0,1,13,1.51l-1,4.23A58,58,0,0,0,59,131.52c-1.8,0-8.46.18-8.46,3.41,0,2.9,5.12,3.11,10.46,3.33,7.06.29,13.72,1,13.72,7,0,6.8-8.52,8.13-14.83,8.13A47.21,47.21,0,0,1,45,150.94Z"/><path class="cls-2" d="M88.6,127.76h4.62v25.08H88.6Z"/><path class="cls-2" d="M124.14,142.45v-4.33h17.1v2.93c0,9.25-7.74,12.33-17.1,12.33-11.28,0-17-5.63-17-13.08s5.44-13.08,18.48-13.08a41.08,41.08,0,0,1,12.76,2l-1.07,4.08a41,41,0,0,0-11.69-1.79c-10,0-13.79,3.66-13.79,8.78s4.12,8.74,12.32,8.74c7.82,0,12.47-2.58,12.47-6.45v-.14Z"/><path class="cls-2" d="M180.21,152.84V142.09H160.07v10.75h-4.62V127.76h4.62v10h20.14v-10h4.62v25.08Z"/><path class="cls-2" d="M214.37,132.06v20.78h-4.62V132.06H197.57v-4.3h29v4.3Z"/><path class="cls-3" d="M27.45,184.2a8.86,8.86,0,0,1-2.73.53c-2.79,0-3.29-1.5-3.29-4.55-1.9,2.55-6.42,4.55-11.36,4.55C4.19,184.73,0,182.48,0,178.21c0-4.76,5.3-6,10-6,3.19,0,8.39.25,11.36.58-.54-3.37-2.51-6-10-6a30.7,30.7,0,0,0-9,1.25l-.68-1.86a33.29,33.29,0,0,1,9.64-1.36c9,0,12.18,3.69,12.18,8.67v6.09c0,2.18.39,3.15,2,3.15a5.39,5.39,0,0,0,1.94-.43Zm-17.06-1.29c4.91,0,9.57-2.12,11-4.81v-4.26H9.85c-3.54,0-7.7.75-7.7,4.23C2.15,181.29,5.66,182.91,10.39,182.91Z"/><path class="cls-3" d="M57,184.2v-9.54c0-4.47-2.69-7.84-9.53-7.84a36.47,36.47,0,0,0-11.43,2.29V184.2H34V165.38l2-.28,0,2.22,0,0a31.73,31.73,0,0,1,11.61-2.51c8,0,11.46,4.19,11.46,9.81v9.54Z"/><path class="cls-3" d="M93.45,184.2a8.86,8.86,0,0,1-2.72.53c-2.8,0-3.3-1.5-3.3-4.55-1.9,2.55-6.41,4.55-11.36,4.55-5.87,0-10.06-2.25-10.06-6.52,0-4.76,5.3-6,10-6,3.19,0,8.38.25,11.36.58-.54-3.37-2.51-6-10-6a30.7,30.7,0,0,0-9,1.25l-.68-1.86a33.43,33.43,0,0,1,9.64-1.36c9,0,12.18,3.69,12.18,8.67v6.09c0,2.18.4,3.15,2,3.15a5.35,5.35,0,0,0,1.93-.43Zm-17-1.29c4.91,0,9.56-2.12,11-4.81v-4.26H75.86c-3.55,0-7.7.75-7.7,4.23C68.16,181.29,71.67,182.91,76.4,182.91Z"/><path class="cls-3" d="M99.79,158.86l2.11-.28V184.2H99.79Z"/><path class="cls-3" d="M109.59,165.38h2.51l6.38,9.86,4.8,7.31,11-17.17h2.47l-13,20.21c-2.76,4.3-5.44,5.49-8.63,5.49a22.27,22.27,0,0,1-4.63-.58v-1.68a23.91,23.91,0,0,0,4.38.57c2.79,0,4.9-1.18,6.88-4.19l.5-.75Z"/><path class="cls-3" d="M146.88,165.38h6.17v1.8h-6.17v10.89c0,3.26.9,4.87,3.3,4.87a14.37,14.37,0,0,0,2.87-.43v1.69a16.6,16.6,0,0,1-3.44.53c-2.94,0-4.84-1.57-4.84-6.66V167.18h-2.51v-1.8h2.51v-4.9l2.11-.29Z"/><path class="cls-3" d="M160.71,163.13v-4.3h2.12v4.3Zm0,21.07V165.38l2.12-.28v19.1Z"/><path class="cls-3" d="M195.23,183.23a31.17,31.17,0,0,1-10.14,1.5c-10.47,0-14.91-4.19-14.91-10s4.44-9.92,14.91-9.92a31.17,31.17,0,0,1,10.14,1.5l-.4,1.87a30.4,30.4,0,0,0-9.71-1.4c-9.21,0-12.79,3.33-12.79,8s3.58,8,12.79,8a30.71,30.71,0,0,0,9.71-1.4Z"/><path class="cls-3" d="M201.47,181.22a46.19,46.19,0,0,0,11.76,1.54c3.11,0,11.21-.36,11.21-4,0-3.33-5.23-3.33-10.64-3.4-6-.08-12.4-.29-12.4-5,0-5.23,7.81-5.48,12.08-5.48a67.52,67.52,0,0,1,11.46,1.07l-.32,2a63.78,63.78,0,0,0-11.47-1.07c-3.9,0-9.6.25-9.6,3.54,0,3.09,4.95,3.12,10.18,3.16,6.12.07,12.86.18,12.86,5.23,0,5.52-9.78,6-13.58,6a44.5,44.5,0,0,1-12-1.57Z"/><path class="cls-3" d="M204.9,9.29A17.68,17.68,0,0,0,189.33,0c-16.44,0-46.25,4.43-68.57,32.75a1.22,1.22,0,0,0-.06,1.42l7.86,12a1.21,1.21,0,0,0,2,0c18.48-26.32,44.64-30.3,58.77-30.3a1.82,1.82,0,0,1,1.52,2.83L150.71,80l-2.35,3.6a1.21,1.21,0,0,1-2,0L94,3.59A8,8,0,0,0,88.77.15l-.2,0L88,0l-.25,0h-.56C84,0,81.7,1.83,80,4.61L30.52,80.19A17.71,17.71,0,0,0,45.33,107.6c16.43,0,46.25-4.43,68.57-32.76a1.22,1.22,0,0,0,.06-1.41l-7.86-12a1.21,1.21,0,0,0-2,0C85.61,87.74,59.46,91.72,45.33,91.72a1.83,1.83,0,0,1-1.52-2.84L83.94,27.59,86.29,24a1.21,1.21,0,0,1,2,0l52.38,80a8.33,8.33,0,0,0,5.2,3.45l.19,0a4.09,4.09,0,0,0,.6.07,2.3,2.3,0,0,0,.26,0h.55c3.16,0,5.48-1.89,7.16-4.61l49.49-75.58A17.72,17.72,0,0,0,204.9,9.29Z"/><path class="cls-4" d="M189.33,0c-16.44,0-46.25,4.43-68.57,32.75a1.22,1.22,0,0,0-.06,1.42l7.86,12a1.21,1.21,0,0,0,2,0c18.48-26.32,44.64-30.3,58.77-30.3"/><path class="cls-5" d="M45.33,107.6c16.43,0,46.25-4.43,68.57-32.76a1.22,1.22,0,0,0,.06-1.41l-7.86-12a1.21,1.21,0,0,0-2,0C85.61,87.74,59.46,91.72,45.33,91.72"/></g></g></g></svg>